<?xml version="1.0" ?><!DOCTYPE svg  PUBLIC '-//W3C//DTD SVG 1.1//EN'  'http://www.w3.org/Graphics/SVG/1.1/DTD/svg11.dtd'><svg height="512px" style="enable-background:new 0 0 512 512;" version="1.1" viewBox="0 0 512 512" width="512px" xml:space="preserve" xmlns="http://www.w3.org/2000/svg" xmlns:xlink="http://www.w3.org/1999/xlink"><g id="_x32_94_x2C__Building_x2C__law_x2C__prison_x2C_justice_x2C__Bank"><g><polygon points="277.763,245.451 234.486,245.451 234.486,263.073 237.004,263.073 275.694,263.073 277.763,263.073   "/><path d="M226.486,454.599v-21.622c0-2.209,1.791-4,4-4h2.518V271.073h-2.518c-2.209,0-4-1.791-4-4v-21.622h-72.625v21.622    c0,2.209-1.791,4-4,4h-2.036v157.903h2.036c2.209,0,4,1.791,4,4v21.622H226.486z"/><polygon points="103.099,436.977 103.099,454.599 145.862,454.599 145.862,436.977 143.826,436.977 105.136,436.977   "/><polygon points="234.486,436.977 234.486,454.599 277.763,454.599 277.763,436.977 275.694,436.977 237.004,436.977   "/><polygon points="413.631,462.599 362.388,462.599 281.763,462.599 230.486,462.599 149.862,462.599 99.099,462.599     68.133,462.599 68.133,492.358 444.598,492.358 444.598,462.599   "/><polygon points="145.862,245.451 103.099,245.451 103.099,263.073 105.136,263.073 143.826,263.073 145.862,263.073   "/><rect height="157.903" width="30.69" x="109.136" y="271.073"/><rect height="157.903" width="30.69" x="241.004" y="271.073"/><path d="M99.099,237.451h50.763h80.625h51.276h80.625h51.243h23.416L260.141,98.234V67.356h44.901l-9.845-14.745    c-0.834-1.247-0.898-2.855-0.169-4.166l10.69-19.212h-45.578v-3.195c0-2.209-1.791-4-4-4s-4,1.791-4,4v72.208L75.663,237.451    H99.099z M129.699,214.545l123.97-97.4c1.45-1.14,3.492-1.139,4.943,0l123.938,97.4c1.341,1.054,1.866,2.841,1.309,4.453    s-2.075,2.692-3.78,2.692H132.17c-1.705,0-3.223-1.081-3.78-2.692C127.833,217.386,128.358,215.599,129.699,214.545z"/><path d="M358.388,454.599v-21.622c0-2.209,1.791-4,4-4h2.035V271.073h-2.035c-2.209,0-4-1.791-4-4v-21.622h-72.625v21.622    c0,2.209-1.791,4-4,4h-2.068v157.903h2.068c2.209,0,4,1.791,4,4v21.622H358.388z"/><polygon points="256.14,125.377 143.736,213.69 368.515,213.69   "/><rect height="157.903" width="30.69" x="372.423" y="271.073"/><polygon points="409.631,245.451 366.388,245.451 366.388,263.073 368.423,263.073 407.113,263.073 409.631,263.073   "/><polygon points="366.388,436.977 366.388,454.599 409.631,454.599 409.631,436.977 407.113,436.977 368.423,436.977   "/></g></g><g id="Layer_1"/></svg>